<?xml version="1.0" encoding="utf-8"?>
<!-- Generator: Adobe Illustrator 24.1.2, SVG Export Plug-In . SVG Version: 6.00 Build 0)  -->
<svg version="1.1" id="Layer_1" xmlns="http://www.w3.org/2000/svg" xmlns:xlink="http://www.w3.org/1999/xlink" x="0px" y="0px"
	 viewBox="0 0 128 128" style="enable-background:new 0 0 128 128;" xml:space="preserve">
<g>
	<g>
		<path d="M120.2,68.8c0,14.9,0,29.7,0,44.6c-1.3,4.2-4.1,5.1-7.6,5.1c-20.2-0.1-40.3,0-60.5,0c-11.9,0-23.9,0-35.8,0
			c-3.8,0-6.5-2.6-6.5-6.3c0-20.3,0-40.5,0-60.8c0-0.6,0.2-1.2,0.3-2c0.5,0.4,0.7,0.7,1,0.9C17,56.1,22.9,62,28.8,67.9
			c0.6,0.6,1.2,0.9,2.1,0.9c6.1,0,12.1,0,18.2,0c0.4,0,0.8,0,1.5,0c-7.6-7.6-15-15-22.6-22.6c0.7,0,1.1,0,1.4,0c5.5,0,11,0,16.5,0
			c0.8,0,1.3,0.2,1.8,0.8c7,7,14,14,21,21.1c0.5,0.5,1,0.8,1.8,0.8c6.2,0,12.4,0,18.7,0c0.3,0,0.6,0,0.9,0c0-0.1,0.1-0.2,0.1-0.3
			c-7.4-7.4-14.7-14.7-22.3-22.3c0.6,0,1,0,1.3,0c5.1,0,10.2,0,15.4,0c0.8,0,1.3,0.2,1.8,0.8c7,7,14,14,21,21.1
			c0.5,0.5,1.1,0.8,1.8,0.8C112.9,68.7,116.5,68.8,120.2,68.8z"/>
		<path d="M7.8,26.2c0.8-1.9,1.9-3.4,4.1-3.7c2.6-0.4,5.2-0.8,7.8-1.1c1.3-0.2,2.6-0.4,4.2-0.6c-4.8,6.4-9.5,12.7-14.3,19.2
			c-0.4-2.7-0.8-5.2-1.1-7.7C8.3,31,8,29.7,7.8,28.4C7.8,27.7,7.8,26.9,7.8,26.2z"/>
		<path d="M120.2,59.8c-4.5-4.5-8.9-8.9-13.6-13.6c4.7,0,9.2,0,13.6,0C120.2,50.7,120.2,55.3,120.2,59.8z"/>
		<path d="M64,37.6c2.4-3.2,4.6-6.1,6.8-9.1c3.9-5.2,7.7-10.4,11.6-15.5c0.3-0.4,0.9-0.8,1.4-0.8c5.8-0.9,11.7-1.7,17.7-2.6
			c-0.3,0.4-0.5,0.7-0.7,1C95,18.4,89.1,26.3,83.1,34.2c-0.3,0.4-0.8,0.8-1.3,0.9c-5.7,0.9-11.4,1.7-17.1,2.5
			C64.6,37.6,64.4,37.6,64,37.6z"/>
		<path d="M25.7,43.2c2-2.7,3.9-5.2,5.8-7.7c4.2-5.6,8.4-11.2,12.5-16.8c0.5-0.6,0.9-1,1.8-1.1c5.3-0.7,10.6-1.5,15.8-2.3
			c0.1,0,0.3,0,0.5,0c-0.2,0.3-0.4,0.6-0.6,0.9C55.6,24.1,49.7,32,43.7,40c-0.3,0.4-0.8,0.8-1.2,0.8c-5.3,0.8-10.6,1.6-15.9,2.3
			C26.4,43.1,26.2,43.1,25.7,43.2z"/>
		<path d="M103.4,31.9c4.6-6.2,9.1-12.2,13.8-18.5c0.4,2.9,0.8,5.5,1.2,8.1c0.2,1.2,0.4,2.5,0.5,3.7c0.2,2.6-1.4,4.7-4,5.1
			c-3.6,0.6-7.3,1.1-10.9,1.6C103.9,31.9,103.7,31.9,103.4,31.9z"/>
	</g>
</g>
</svg>
