<?xml version="1.0" encoding="utf-8"?>
<!-- Generator: Adobe Illustrator 24.1.2, SVG Export Plug-In . SVG Version: 6.00 Build 0)  -->
<svg version="1.1" id="Layer_1" xmlns="http://www.w3.org/2000/svg" xmlns:xlink="http://www.w3.org/1999/xlink" x="0px" y="0px"
	 viewBox="0 0 16 16" style="enable-background:new 0 0 16 16;" xml:space="preserve">
<style type="text/css">
	.st0{fill:#E0E0E0;}
</style>
<path class="st0" d="M16,9.3V6.7h-1.7c-0.2-0.8-0.5-1.6-0.9-2.2l1.2-1.2l-1.8-1.8l-1.2,1.2c-0.7-0.4-1.4-0.8-2.2-0.9V0H6.7v1.7
	C5.9,1.9,5.1,2.2,4.5,2.7L3.2,1.4L1.4,3.2l1.2,1.2C2.2,5.1,1.9,5.9,1.7,6.7H0v2.6h1.7c0.2,0.8,0.5,1.6,0.9,2.2l-1.2,1.2l1.8,1.8
	l1.2-1.2c0.7,0.4,1.4,0.8,2.2,0.9V16h2.6v-1.7c0.8-0.2,1.6-0.5,2.2-0.9l1.2,1.2l1.8-1.8l-1.2-1.2c0.4-0.7,0.8-1.4,0.9-2.2H16z
	 M6,11.5V4.5L10.9,8L6,11.5z"/>
</svg>
