<?xml version="1.0" encoding="utf-8"?>
<!-- Generator: Adobe Illustrator 24.1.2, SVG Export Plug-In . SVG Version: 6.00 Build 0)  -->
<svg version="1.1" id="Layer_1" xmlns="http://www.w3.org/2000/svg" xmlns:xlink="http://www.w3.org/1999/xlink" x="0px" y="0px"
	 viewBox="0 0 256 256" style="enable-background:new 0 0 256 256;" xml:space="preserve">
<style type="text/css">
	.st0{fill:#E0E0E0;}
</style>
<path class="st0" d="M256,148.5v-41h-27.7c-2.7-13.1-7.8-25.2-14.9-36L233,52l-29-29l-19.6,19.6c-10.7-7.1-22.9-12.3-36-14.9V0h-41
	v27.7c-13.1,2.7-25.2,7.8-36,14.9L52,23L23,52l19.6,19.6c-7.1,10.7-12.3,22.9-14.9,36H0v41h27.7c2.7,13.1,7.8,25.2,14.9,36L23,204
	l29,29l19.6-19.6c10.7,7.1,22.9,12.3,36,14.9V256h41v-27.7c13.1-2.7,25.2-7.8,36-14.9L204,233l29-29l-19.6-19.6
	c7.1-10.7,12.3-22.9,14.9-36H256z M128,169c-22.6,0-41-18.3-41-41s18.3-41,41-41s41,18.3,41,41S150.6,169,128,169z"/>
</svg>
