<?xml version="1.0" encoding="utf-8"?>
<!-- Generator: Adobe Illustrator 24.1.2, SVG Export Plug-In . SVG Version: 6.00 Build 0)  -->
<svg version="1.1" id="Layer_1" xmlns="http://www.w3.org/2000/svg" xmlns:xlink="http://www.w3.org/1999/xlink" x="0px" y="0px"
	 viewBox="0 0 1024 139.9" style="enable-background:new 0 0 1024 139.9;" xml:space="preserve">
<g>
	<g>
		<path d="M672.6,1c-1.4,6.6-2.7,13.1-4.4,19.4c-0.2,0.9-2.7,1.8-4.1,1.8c-18.5,0.1-37.1,0.1-55.6,0.1c-2.8,0-5.5-0.1-8.3,0
			c-4.9,0.2-7.5,2.3-8.5,7c-3.7,17.1-7.3,34.2-10.9,51.3c-1,4.5,0.6,6.5,5.3,6.5c11.3,0,22.6,0,33.9,0c3.7,0,5.6-1.6,6.2-5.2
			c0.9-5.4,2.1-10.7,3.3-16.5c-6.2,0-11.9,0-18.3,0c1.4-7,2.7-13.4,4.2-19.8c0.2-0.8,1.6-1.7,2.5-1.7c14.5-0.1,28.9-0.1,43.9-0.1
			c-1.9,9.1-3.7,17.8-5.5,26.5c-1.4,6.7-2.8,13.3-4.2,19.9c-2.1,10-12.2,18.4-22.5,18.4c-20,0.1-40,0.1-59.9,0
			c-11.9-0.1-19.8-10.1-17.4-21.6c4.6-22.1,9-44.2,13.4-66.3c2-10.3,12.3-20.1,22.8-20.2c27.4-0.3,54.7-0.1,82.1-0.1
			C670.9,0.6,671.5,0.8,672.6,1z"/>
		<path d="M118.3,0.7c5.6,36,11.2,71.8,16.9,108.1c-10.2,0-20,0.1-29.8-0.1c-0.8,0-2.1-1.7-2.3-2.7c-1.1-6.1-2-12.2-2.9-18.6
			c-9,0-17.7,0-26.4,0c-5.9,0-11.9,0.1-17.8-0.1c-2.5-0.1-3.9,0.8-5,3.1c-2.7,5.4-5.6,10.8-8.6,16.1c-0.6,1.1-2.3,2.3-3.5,2.3
			c-9.4,0.2-18.8,0.1-28.9,0.1c2.6-4.8,4.9-9.3,7.3-13.6C33.7,64.9,50.3,34.8,66.7,4.5c1.6-2.9,3.3-4.1,6.7-4
			c13.5,0.2,26.9,0,40.4,0C115.3,0.5,116.7,0.6,118.3,0.7z M64.3,65.7c11.5,0,21.9,0,32.7,0c-0.2-1.9-0.3-3.5-0.5-5.1
			c-1.6-11.4-3.2-22.9-5-34.3c-0.2-1.3-1.3-2.5-2-3.7c-1.3,0.9-3.1,1.5-3.8,2.7c-4.4,7.9-8.7,16-12.9,24
			C70.1,54.6,67.4,59.9,64.3,65.7z"/>
		<path d="M841.4,139.9c-8.8,0-17.3,0-26.5,0c1.4-7.5,2.8-14.8,4.3-22c5.8-28.1,11.6-56.2,17.2-84.4c0.8-3.9,2-5.5,6.3-5.4
			c18.8,0.3,37.6,0.1,56.4,0.1c11,0,18.3,8.4,16.3,19.1c-2.8,14.9-6,29.7-9.4,44.5c-2.3,9.9-11.8,17-22,17
			c-10.9,0.1-21.7,0.2-32.6-0.1c-3.3-0.1-4.4,1.1-5,4.2C845.1,121.9,843.2,130.8,841.4,139.9z M865.5,88.9
			C865.5,88.8,865.5,88.8,865.5,88.9c3.3,0,6.7,0,10,0c3.2,0,5.4-1.6,6-4.6c2.2-10.2,4.2-20.3,6.2-30.5c0.7-3.6-0.9-5.5-4.6-5.5
			c-6.1,0-12.2-0.3-18.2,0.2c-1.9,0.2-4.8,2.2-5.2,3.9c-2.6,10.9-4.7,22-7,33c-0.6,2.8,0.7,3.7,3.3,3.6
			C859.2,88.8,862.4,88.9,865.5,88.9z"/>
		<path d="M966.2,0.3c-1.9,9.4-3.8,18.3-5.7,27.7c1.8,0.1,3.3,0.2,4.9,0.2c9.4,0,18.8-0.1,28.2,0c11.3,0.1,20.1,10.2,18,21.2
			c-3.7,18.9-7.8,37.7-11.9,56.5c-0.2,1.1-1.5,2.8-2.4,2.8c-8.1,0.2-16.2,0.1-24.8,0.1c2.6-12.3,5.1-24.2,7.6-36
			c1.2-5.7,2.4-11.3,3.6-17c1-5.1-0.8-7.5-5.9-7.6c-5.4-0.1-10.7,0-16.1-0.1c-3.7-0.1-5.8,1.5-6.6,5.3c-3.5,17.1-7.2,34.2-10.9,51.3
			c-0.3,1.3-0.6,2.5-0.9,3.9c-8.7,0-17.2,0-26.3,0c1.6-8,3.1-15.7,4.7-23.4c5.5-26.8,11.1-53.5,16.5-80.3c0.7-3.7,2.2-4.9,5.9-4.7
			C951.3,0.5,958.5,0.3,966.2,0.3z"/>
		<path d="M395.3,108.8c-7.7,0-15.3,0-23,0c-11.1,0-17.8-8-15.7-18.8c2.8-14.5,5.7-28.9,8.8-43.3c2.3-11.2,11.5-18.5,23-18.5
			c14.9,0,29.8,0,44.7,0c11.4,0,18.2,9,15.7,20.1c-3.1,13.8-6.1,27.7-8.9,41.6c-2.4,11.8-10.8,18.9-22.9,18.9
			C409.8,108.8,402.6,108.8,395.3,108.8C395.3,108.8,395.3,108.8,395.3,108.8z M398.4,88.8c3.2,0,6.4,0,9.5,0c3.5,0,5.8-1.6,6.5-5.1
			c2.1-10,4.3-20.1,6.3-30.1c0.8-3.8-0.6-5.4-4.5-5.5c-6.2-0.1-12.4,0-18.6,0c-3.3,0-5.6,1.5-6.3,4.8c-2.3,10.3-4.5,20.6-6.6,30.9
			c-0.6,3.1,0.8,5,4.2,5.1C392.1,88.9,395.3,88.9,398.4,88.8z"/>
		<path d="M806.5,108.8c-21.9,0-43.3,0.2-64.7-0.1c-8.5-0.1-14.4-8.2-13.1-17.1c0.8-5.3,2-10.5,3.3-15.7
			c2.4-9.1,11.3-15.8,20.9-15.9c11.1-0.1,22.3-0.1,33.4-0.1c4.1,0,5.6-2.2,5.6-8.1c0-4-2.9-3.6-5.5-3.6c-12.6,0-25.2,0-37.8,0
			c-2.2,0-4.3,0-7.2,0c1.4-6.5,2.5-12.5,4-18.4c0.2-0.7,2-1.5,3.1-1.5c20.7-0.1,41.4-0.2,62.1,0c7.7,0.1,11.5,6.1,9.8,14.4
			c-4.1,19.5-8.3,39.1-12.4,58.6C807.6,103.6,807.1,106,806.5,108.8z M787.3,75.1c-8.8,0-16.9-0.3-25.1,0.1
			c-4.6,0.3-8.5,9.3-6.1,13.3c0.7,1.2,2.4,2.3,3.8,2.4c6.6,0.3,13.3,0.4,19.9,0c1.7-0.1,4.1-2,4.7-3.6
			C785.9,83.6,786.3,79.6,787.3,75.1z"/>
		<path d="M532.8,108.6c-8.9,0-17.5,0-26.6,0c2.5-12.2,5-24.1,7.5-36.1c1.2-5.8,2.6-11.6,3.7-17.4c1-5.1-0.6-6.9-5.9-7
			c-5.1,0-10.1-0.1-15.2,0c-5.3,0-6.8,1.2-7.9,6.6c-3.8,17.8-7.5,35.6-11.3,53.8c-8.7,0-17.5,0-26.6,0c2.4-12.1,4.8-23.9,7.3-35.8
			c2.8-13.6,5.7-27.1,8.4-40.7c0.5-2.8,1.5-3.9,4.5-3.9c19.4,0.1,38.8,0,58.2,0.1c11.1,0.1,18.8,9.7,16.6,20.6
			C541.3,68.7,537,88.6,532.8,108.6z"/>
		<path d="M313,28c-1.4,7.2-2.7,13.5-4,20.1c-8.5,0-16.6,0.2-24.7-0.1c-3.1-0.1-4.3,0.9-4.9,3.9c-1.9,9.8-4.1,19.5-6.1,29.3
			c-1.1,5.6,0.5,7.5,6.1,7.6c6.8,0,13.6,0,21.1,0c-1.4,6.8-2.6,13.2-3.9,19.9c-12.6,0-24.9,0.4-37.2-0.1
			c-10.1-0.5-16.4-9.7-14.3-19.7c2.7-13.3,5.5-26.6,8.4-40.5c-4.7,0-9.1,0-14.2,0c1.4-6.7,2.5-12.7,3.9-18.7c0.2-0.7,2-1.4,3.1-1.5
			c2.7-0.2,5.5-0.2,8.2,0c2.6,0.2,3.5-0.9,3.9-3.4c1-6.1,2.3-12.1,3.6-18.3c8.9,0,17.4,0,26.6,0c-1.4,7.2-2.7,14-4.1,21.5
			C293.9,28,302.9,28,313,28z"/>
		<path d="M233.1,28.2c-1.2,6.5-2.2,12.4-3.6,18.1c-0.2,0.9-2.6,1.8-4,1.8c-12,0.1-24,0.1-36.1,0.1c-6.8,0-8.9,1.7-10.3,8.5
			c-1.7,8.2-3.3,16.4-5,24.6c-1.2,5.9,0.1,7.6,6.2,7.6c12.3,0,24.6,0,36.9,0c1.1,0,2.3,0,3.9,0c-1.3,6.2-2.4,12.1-3.8,18
			c-0.2,0.8-1.8,1.8-2.7,1.9c-17.8,0.1-35.6,0.3-53.4,0c-10-0.2-17.1-9.9-15.2-19.7c2.8-13.9,5.5-27.8,8.3-41.7
			c2.3-11.5,11.4-19.1,23-19.2c17.1-0.1,34.2,0,51.3,0C229.8,28.2,231.1,28.2,233.1,28.2z"/>
		<path d="M689.2,108.6c-9,0-17.6,0-26.6,0c5.6-26.8,11.1-53.3,16.7-80.2c18.7,0,37.3,0,56.6,0c-1.2,6.6-2.5,13-3.7,19.7
			c-6.8,0-13.3,0-19.8,0c-8,0-10.9,2.4-12.5,10.1C696.4,74.9,692.8,91.6,689.2,108.6z"/>
		<path d="M311,108.6c5.6-27.1,11-53.5,16.5-80.2c8.9,0,17.6,0,27,0c-5.7,26.9-11.3,53.5-16.9,80.2
			C328.7,108.6,320.2,108.6,311,108.6z"/>
		<path d="M360,0.3c-1.2,5.8-2.2,11.1-3.4,16.4c-0.2,0.7-1.4,1.6-2.1,1.6c-8.2,0.1-16.4,0.1-25.1,0.1c1.1-5.7,2-10.9,3.2-16.1
			c0.2-0.8,1.5-1.8,2.3-1.8C343,0.2,351.2,0.3,360,0.3z"/>
	</g>
</g>
</svg>
