<svg version="1.1" id="Layer" x="0px" y="0px" viewBox="0 0 100 100">
<style type="text/css">
	.st0{fill:#FFFFFF;}
</style>
<g id="Shape">
	<rect x="6.2" y="40.3" transform="matrix(-1 -4.480384e-11 4.480384e-11 -1 43.7452 99.2696)" class="st0" width="31.3" height="18.7"/>
	<path class="st0" d="M51.1,90.8c-3.2-2.7-4.8-6.9-4.8-12.4c-0.1-3.3-0.2-5.9-0.2-8.2c-0.1-8-0.1-10.5-4.2-18.7l-0.8-1.6l0.8-1.6
		C46,40,46,37.5,46.1,29.5c0-2.2,0.1-4.8,0.2-8.1c0.1-5.5,1.7-9.7,4.9-12.5c3.4-3,8.4-4,14.7-2.8V13c-4.3-0.7-8.4-0.2-10.2,1.4
		c-1.6,1.4-2.4,3.9-2.4,7.3v0.1c-0.1,3.2-0.2,5.7-0.2,8C53,37.6,53,41.4,48.9,50c4.1,8.5,4.1,12.1,4.2,20.2c0,2.3,0.1,4.9,0.2,8.1
		v0.1c0,3.4,0.8,5.8,2.4,7.2c1.8,1.6,5.9,2.1,10.2,1.5l0,6.9c-1.4,0.2-2.8,0.3-4.1,0.3C57.3,94.3,53.7,93.1,51.1,90.8z"/>
	<rect x="62.5" y="68.4" transform="matrix(-1 -4.492063e-11 4.492063e-11 -1 156.2548 149.2186)" class="st0" width="31.3" height="12.5"/>
	<rect x="62.5" y="43.4" transform="matrix(-1 -4.492063e-11 4.492063e-11 -1 156.2548 99.2696)" class="st0" width="31.3" height="12.5"/>
	<rect x="62.5" y="18.4" transform="matrix(-1 -4.492063e-11 4.492063e-11 -1 156.2548 49.2823)" class="st0" width="31.3" height="12.5"/>
</g>
</svg>