<?xml version="1.0" encoding="utf-8"?>
<!-- Generator: Adobe Illustrator 24.1.2, SVG Export Plug-In . SVG Version: 6.00 Build 0)  -->
<svg version="1.1" id="Layer" xmlns="http://www.w3.org/2000/svg" xmlns:xlink="http://www.w3.org/1999/xlink" x="0px" y="0px"
	 viewBox="0 0 100 100" style="enable-background:new 0 0 100 100;" xml:space="preserve">
<style type="text/css">
	.st0{fill:#FFFFFF;}
</style>
<g id="Shape">
	<rect x="4.9" y="46.4" transform="matrix(0.7071 -0.7071 0.7071 0.7071 -20.6622 49.9332)" class="st0" width="90.1" height="7"/>
	<path class="st0" d="M7.2,92.8c-9.6-9.6-9.6-25.3,0-34.9L22,43.1l5,4.9L12.2,62.8c-6.9,6.9-6.9,18.1,0,25s18.1,6.9,25,0L52,73
		l4.9,4.9L42.1,92.8C32.5,102.4,16.8,102.4,7.2,92.8z"/>
	<path class="st0" d="M92.9,7.2c9.6,9.6,9.6,25.3,0,34.9L78.1,56.9l-5-4.9l14.8-14.8c6.9-6.9,6.9-18.1,0-25s-18.1-6.9-25,0L48.1,27
		l-4.9-5L58,7.2C67.6-2.4,83.2-2.4,92.9,7.2z"/>
</g>
</svg>