<?xml version="1.0" encoding="utf-8"?>
<!-- Generator: Adobe Illustrator 24.1.2, SVG Export Plug-In . SVG Version: 6.00 Build 0)  -->
<svg version="1.1" id="Layer" xmlns="http://www.w3.org/2000/svg" xmlns:xlink="http://www.w3.org/1999/xlink" x="0px" y="0px"
	 viewBox="0 0 100 100" style="enable-background:new 0 0 100 100;" xml:space="preserve">
<style type="text/css">
	.st0{fill:#FFFFFF;}
</style>
<path id="Shape" class="st0" d="M88.8,31.6V16.4h-7c-16.4,0-25.6,5.3-31.8,9.1c-6.2-3.8-15.4-9.1-31.8-9.1h-7v15.2H6.3v49.1h7.9
	c14.6,0,22.2,3.3,28.3,5.9c1.3,0.6,2.5,1.1,3.7,1.6l3.8,1.5l3.8-1.5c1.2-0.5,2.5-1,3.7-1.6c6.1-2.6,13.7-5.9,28.3-5.9h7.9V31.6H88.8
	z M18.2,71.3V23.4c14.6,0,22.5,4.6,28.3,8.2v47.9C40.7,76,32.8,71.3,18.2,71.3z M81.8,71.3c-14.6,0-22.5,4.6-28.3,8.2V31.6
	c5.8-3.5,13.7-8.2,28.3-8.2V71.3z"/>
</svg>
