<svg version="1.1" id="Layer" x="0px" y="0px" viewBox="0 0 100 100">
<style type="text/css">
	.st0{fill:#FFFFFF;}
</style>
<g id="Shape">
	<path class="st0" d="M50,37.5c0-2.3-1.3-4.3-3.1-5.4v-7h-6.3v7c-1.9,1.1-3.1,3.1-3.1,5.4s1.3,4.3,3.1,5.4V75h6.3V42.9
		C48.7,41.8,50,39.8,50,37.5z M43.7,40.6c-1.7,0-3.1-1.4-3.1-3.1c0-1.7,1.4-3.1,3.1-3.1c1.7,0,3.1,1.4,3.1,3.1
		C46.9,39.2,45.5,40.6,43.7,40.6z"/>
	<path class="st0" d="M31.3,44.6V25H25v19.6c-1.9,1.1-3.1,3.1-3.1,5.4s1.3,4.3,3.1,5.4V75h6.3V55.4c1.9-1.1,3.1-3.1,3.1-5.4
		S33.2,45.7,31.3,44.6z M28.1,53.1c-1.7,0-3.1-1.4-3.1-3.1c0-1.7,1.4-3.1,3.1-3.1c1.7,0,3.1,1.4,3.1,3.1
		C31.3,51.7,29.9,53.1,28.1,53.1z"/>
	<path class="st0" d="M15.6,57.2V25H9.3v32.2c-1.9,1.1-3.1,3.1-3.1,5.4s1.3,4.3,3.1,5.4V75h6.3v-6.9c1.9-1.1,3.1-3.1,3.1-5.4
		S17.5,58.3,15.6,57.2z M12.5,65.8c-1.7,0-3.1-1.4-3.1-3.1c0-1.7,1.4-3.1,3.1-3.1c1.7,0,3.1,1.4,3.1,3.1
		C15.6,64.4,14.2,65.8,12.5,65.8z"/>
	<path class="st0" d="M77.9,68.7v-2.5c0-1.5,0.9-3,2.4-3.6c1.5-0.6,3.2-0.2,4.2,0.9l1.8,1.8
		l4-4l-1.8-1.8c-1.1-1.1-1.5-2.7-0.9-4.2c0.6-1.5,2.1-2.4,3.6-2.4h2.5v-5.7h-2.5c-1.5,0-3-0.9-3.6-2.4
		c-0.6-1.5-0.2-3.2,0.9-4.2l1.8-1.8l-4-4l-1.8,1.8c-1.1,1.1-2.7,1.5-4.2,0.9s-2.4-2.1-2.4-3.6v-2.6h-5.7v2.5
		c0,1.5-0.9,3-2.4,3.6c-1.5,0.6-3.2,0.2-4.2-0.9l-1.8-1.8l-4,4l1.8,1.8c1.1,1.1,1.5,2.7,0.9,4.2c-0.6,1.5-2.1,2.4-3.6,2.4
		h-2.6v5.7h2.5c1.5,0,3,0.9,3.6,2.4c0.6,1.5,0.2,3.2-0.9,4.2l-1.8,1.8l4,4l1.8-1.8c1.1-1.1,2.7-1.5,4.2-0.9
		c1.5,0.6,2.4,2.1,2.4,3.6v2.6H77.9z M75,55.3L75,55.3c-3,0-5.4-2.4-5.4-5.4s2.4-5.4,5.4-5.4c3,0,5.4,2.4,5.4,5.4
		S78,55.3,75,55.3z"/>
</g>
</svg>