<svg version="1.1" id="Layer" x="0px" y="0px" viewBox="0 0 100 100">
<style type="text/css">
	.st0{fill:#FFFFFF;}
</style>
<g id="Shape">
	<rect x="28.1" y="59.4" class="st0" width="37.5" height="6.2"/>
	<rect x="28.1" y="46.9" class="st0" width="37.5" height="6.2"/>
	<rect x="28.1" y="34.4" class="st0" width="37.5" height="6.2"/>
	<rect x="28.1" y="21.9" class="st0" width="37.5" height="6.2"/>
	<path class="st0" d="M85.1,9.4H28.2c-5.2,0-9.4,4.2-9.4,9.4v53.1H6.3v9.4c0,5.2,4.2,9.3,9.3,9.3h59.3V28.1l18.8,0V18.1
		C93.7,13.3,89.8,9.4,85.1,9.4z M53.1,78.2v6.2H17.7c-2.9,0-5.2-2.3-5.2-5.2v-1H53.1z M25,71.9V20.8c0-2.9,2.3-5.2,5.2-5.2h38.5
		v68.7h-9.3v-6.2h6.2v-6.3H25z M87.5,21.9H74.9v-6.3H84c1.9,0,3.5,1.6,3.5,3.5V21.9z"/>
</g>
</svg>