<svg version="1.1" id="Layer" x="0px" y="0px" viewBox="0 0 100 100">
<style type="text/css">
	.st0{fill:#FFFFFF;}
</style>
<path id="Shape" class="st0" d="M0,46.6V50c0,5.1,1.7,13.4,6.4,20.8C4.1,75.8,2,81.3,0,87.4V100h3.6c2.2-8.6,4.9-16.3,7.7-23.1
	c5.8,5.8,14.4,10,26.5,9.9c30-0.3,35.2-25.9,37-36.8C76.7,39.1,85.7,12.3,100,0C22.6,0,1.2,27.9,0,46.6z M63.3,20.8
	c-12.2,5.2-35.1,18.3-50.8,47.1c-0.3,0.6-0.9,0.9-1.5,0.9c-0.3,0-0.6-0.1-0.8-0.2c-0.8-0.5-1.2-1.5-0.7-2.4
	C25.7,36.6,49.3,23,61.9,17.6c0.9-0.4,1.9,0,2.3,0.9C64.6,19.4,64.2,20.5,63.3,20.8z"/>
</svg>