<svg version="1.1" id="Layer" x="0px" y="0px" viewBox="0 0 100 100">
<style type="text/css">
	.st0{fill:#FFFFFF;}
</style>
<path id="Shape" class="st0" d="M56.7,93.8V88h0c0-3.6,2-7,5.6-8.4h0c3.5-1.5,7.4-0.5,9.9,2l4.1,4.1l9.4-9.4l-4.1-4.1
	c-2.6-2.5-3.5-6.4-2-9.9c1.5-3.5,4.9-5.6,8.4-5.5v0h5.8l0-13.3H88v0c-3.6,0-7-2-8.4-5.6v0c-1.5-3.5-0.5-7.4,2-9.9l4.1-4.1
	l-9.4-9.4l-4.1,4.1c-2.5,2.6-6.4,3.5-9.9,2c-3.5-1.5-5.6-4.9-5.5-8.4h0V6.2l-13.3,0V12h0c0,3.6-2,7-5.6,8.4h0
	c-3.5,1.5-7.4,0.5-9.9-2l-4.1-4.1l-9.4,9.4l4.1,4.1c2.6,2.5,3.5,6.4,2,9.9c-1.5,3.5-4.9,5.6-8.4,5.5v0H6.2l0,13.3H12v0
	c3.6,0,7,2,8.4,5.6v0c1.5,3.5,0.5,7.4-2,9.9l-4.1,4.1l9.4,9.4l4.1-4.1c2.5-2.6,6.4-3.5,9.9-2c3.5,1.5,5.6,4.9,5.5,8.4h0
	v5.8L56.7,93.8z M50,62.5L50,62.5c-6.9,0-12.5-5.6-12.5-12.5S43.1,37.5,50,37.5v0c6.9,0,12.5,5.6,12.5,12.5S56.9,62.5,50,62.5z"/>
</svg>