<svg version="1.1" id="Layer" x="0px" y="0px" viewBox="0 0 100 100">
<style type="text/css">
	.st0{fill:#FFFFFF;}
</style>
<g id="Shape">
	<path class="st0" d="M22.3,94.4c-1.3,0-2.7-0.1-4.1-0.3l1-6.9c4.3,0.6,7.4,0.1,9.2-1.5c1.6-1.4,2.4-3.8,2.4-7.2l0-0.1
		c0.1-3.2,0.2-5.8,0.2-8.1c0.1-8.1,0.1-11.7,4.2-20.2c-4.1-8.6-4.1-12.4-4.2-20.2c0-2.3-0.1-4.8-0.2-8l0-0.1c0-3.4-0.8-5.9-2.4-7.3
		c-1.8-1.6-4.9-2.1-9.2-1.4l-1-6.9C24.5,5,29.5,6,32.9,9c3.2,2.8,4.8,7,4.9,12.5c0.1,3.3,0.2,5.9,0.2,8.1c0.1,8,0.1,10.5,4.2,18.8
		L43,50l-0.8,1.6c-4.1,8.2-4.1,10.7-4.2,18.7c0,2.3-0.1,4.9-0.2,8.2c0,5.5-1.6,9.7-4.8,12.4C30.4,93.2,26.8,94.4,22.3,94.4z"/>
	<polygon class="st0" points="81.2,34.4 76.5,34.4 65.7,45.1 54.9,34.4 50,34.4 50,39.3 60.7,50.1 50,60.8 50,65.5 55.2,65.5 
		65.7,55 76.2,65.5 81.2,65.5 81.2,60.6 70.6,50.1 81.2,39.5 	"/>
</g>
</svg>