<svg version="1.1" id="Layer" x="0px" y="0px" viewBox="0 0 100 100">
<style type="text/css">
	.st0{fill:#FFFFFF;}
</style>
<g id="Shape">
	<path class="st0" d="M40.6,23.1h7.1l2.1,6.3h2.8l-6.8-20h-3.1l-6.8,20h2.7L40.6,23.1z M43.1,15.3c0.4-1.2,0.7-2.4,1-3.6h0.1
		c0.3,1.2,0.6,2.3,1,3.6l2,5.7h-6L43.1,15.3z"/>
	<polygon class="st0" points="62.4,65.3 73.5,49.2 73.5,47.6 60,47.6 60,49.8 70.1,49.8 70.1,49.9 59,66.1 59,67.6 73.6,67.6 
		73.6,65.4 62.4,65.4 	"/>
	<path class="st0" d="M18.6,76.9c-0.2,0.7-0.3,1.5-0.3,2.3c0,4.8,3.9,8.7,8.7,8.7h8.5v7.1c0,0.8,0.5,1.6,1.3,1.8
		c0.8,0.3,1.6,0,2.2-0.6l3.4-4.3l2.9,4.2c0.4,0.5,1,0.9,1.6,0.9c0.2,0,0.4,0,0.6-0.1c0.8-0.3,1.4-1,1.4-1.9v-7.1h31
		c1.1,0,1.9-0.9,1.9-1.9s-0.9-1.9-1.9-1.9c-2.6,0-4.8-2.2-4.8-4.8s2.2-4.8,4.8-4.8h2L81.1,3.1H27.8c-5,0-9.2,4.1-9.2,9.2V76.9z
		 M31.6,7h45.7l0.5,63.4H31.6V7z M22.5,12.3c0-2.9,2.3-5.2,5.2-5.3v63.4h-5.2V12.3z M44.9,88.6l-0.8-1.2c-0.3-0.5-0.9-0.8-1.5-0.9
		c-0.6,0-1.2,0.3-1.6,0.7l-1.6,2v-8.2h5.5V88.6z M72.5,83.9H48.8v-2.8h10.7c1.1,0,1.9-0.9,1.9-1.9c0-1.1-0.9-1.9-1.9-1.9H34.2
		c-1.1,0-1.9,0.9-1.9,1.9c0,1.1,0.9,1.9,1.9,1.9h1.3v2.8H27c-2.6,0-4.8-2.2-4.8-4.8s2.2-4.8,4.8-4.8h45.5c-0.9,1.4-1.5,3-1.5,4.8
		C71,80.9,71.6,82.5,72.5,83.9z"/>
	<path class="st0" d="M73,32.9H36.3c-1.1,0-1.9,0.9-1.9,1.9c0,1.1,0.9,1.9,1.9,1.9H73c1.1,0,1.9-0.9,1.9-1.9
		C75,33.7,74.1,32.9,73,32.9z"/>
	<path class="st0" d="M73,40.4H36.3c-1.1,0-1.9,0.9-1.9,1.9s0.9,1.9,1.9,1.9H73c1.1,0,1.9-0.9,1.9-1.9S74.1,40.4,73,40.4z"/>
</g>
</svg>